<svg width="156" height="48" viewBox="0 0 156 48" fill="none" xmlns="http://www.w3.org/2000/svg">
<path d="M41.2278 33.777C41.2278 33.777 37.4243 35.4985 30.0481 35.4985C24.1384 35.4985 19.5752 33.777 19.5752 33.777C19.5752 33.777 23.8307 36.566 30.1779 36.4409C38.8764 36.2774 41.2278 33.777 41.2278 33.777Z" fill="white"/>
<path d="M24.7301 17.0723C26.9468 16.3126 29.2501 16.1828 31.0533 16.1347C36.2849 15.9952 40.6462 19.2746 41.3867 20.2652C42.3339 21.525 43.1898 24.4245 43.3678 26.9201C43.6226 30.5457 42.911 33.7818 42.911 33.7818C42.911 33.7818 44.5362 30.7957 44.0698 25.4776C43.7044 21.3134 41.2232 18.9428 41.2232 18.9428C41.2232 18.9428 36.9725 14.7402 31.0004 14.7402C22.9077 14.7402 18.8638 19.8709 18.8638 19.8709C18.8638 19.8709 17.0173 22.1934 16.7769 25.718C16.4259 30.8294 17.9742 33.7818 17.9742 33.7818C17.4885 30.6515 16.6374 25.9007 19.4744 20.3565C19.8591 19.6112 22.3547 17.885 24.7301 17.0723Z" fill="white"/>
<path d="M50.9077 24.1504C50.5807 21.1884 47.7485 20.7845 47.5321 20.7605C47.0128 19.3083 46.3588 17.909 45.7097 16.9089C45.0317 15.8606 43.9258 14.3508 42.5698 13.038C41.3292 11.8407 39.853 10.8261 38.8913 10.2107C37.0112 9.00373 32.7172 7.86412 29.9812 8.01318C26.5671 8.20552 22.6098 8.95083 17.7676 13.567C16.1039 15.1538 14.4931 17.7648 13.416 20.7556C13.1226 20.7941 10.3722 21.2317 10.05 24.1456C9.64131 27.8626 11.8484 28.3482 12.2042 28.4011C12.2283 29.2907 12.31 30.1899 12.4735 31.0169C12.887 33.1182 14.0026 36.3111 15.0076 38.0469C15.2288 38.4268 15.926 39.7732 16.3251 39.9607C16.5319 40.0569 26.8316 39.9463 26.8316 39.9463L16.7771 38.6528C16.7771 38.6528 15.5605 36.8833 14.5844 34.6473C13.6997 32.6278 13.2236 30.1466 13.0746 28.8098C12.8534 26.8239 12.9111 24.915 13.4785 22.5925C14.0363 20.3036 15.2865 17.9283 15.7433 17.3368C17.1522 15.5096 19.5516 13.9997 20.9172 13.3891C24.8842 11.6243 28.3559 11.2829 30.9044 11.3262C37.9536 11.4416 43.1901 14.6008 45.2048 17.3609C46.1328 18.6351 47.3302 21.5154 47.7148 23.8042C48.1284 26.2565 47.9937 28.4252 47.6379 30.3197C47.4696 31.2285 47.0993 32.974 46.4021 34.5752C45.4597 36.7342 44.1566 38.7153 44.1566 38.7153L34.0876 39.9463H43.6901C43.6901 39.9463 44.6134 39.9655 44.6614 39.9463C44.8826 39.8549 46.0607 37.9027 46.0607 37.9027C46.0607 37.9027 47.2821 35.3157 47.6619 34.2338C48.3976 32.1421 48.6861 30.2764 48.7246 28.4107C48.965 28.3819 51.3308 27.9876 50.9077 24.1504ZM12.6514 23.3378C12.3966 24.4341 12.1561 26.3912 12.2042 28.3819C11.9494 28.2136 10.8098 27.3 11.0021 24.7371C11.257 21.3904 13.1659 20.823 13.4112 20.7653C13.113 21.5971 12.8534 22.4626 12.6514 23.3378ZM48.7246 28.4011C48.7487 27.2038 48.6669 26.0113 48.5323 24.7611C48.4072 23.5926 48.0322 22.1549 47.5321 20.7605C47.7196 20.8037 49.6959 21.3279 49.9556 24.7371C50.1575 27.4202 48.8977 28.2953 48.7246 28.4011Z" fill="white"/>
<path d="M58.4159 22.338C58.589 21.9701 58.8198 21.6528 59.1156 21.3787C59.4113 21.1046 59.7575 20.8882 60.1542 20.7295C60.5509 20.5709 60.9764 20.4915 61.4236 20.4915C61.878 20.4915 62.3036 20.5709 62.6931 20.7295C63.0826 20.8882 63.4216 21.1046 63.7028 21.3787C63.9841 21.6528 64.2077 21.9773 64.3592 22.3452C64.5179 22.713 64.5972 23.1025 64.5972 23.5209V24.2277C64.5972 24.372 64.5756 24.4657 64.5251 24.509C64.4818 24.5523 64.4097 24.5739 64.3231 24.5739H63.1547C63.0321 24.5739 62.9455 24.5523 62.8878 24.509C62.8301 24.4657 62.8013 24.372 62.8013 24.2277V23.5713C62.8013 23.391 62.7724 23.2179 62.7075 23.0592C62.6426 22.8933 62.556 22.7491 62.4334 22.6265C62.318 22.5039 62.1738 22.4029 62.0079 22.3235C61.842 22.2442 61.6617 22.2081 61.4597 22.2081C61.2577 22.2081 61.0774 22.2442 60.9115 22.3235C60.7456 22.3957 60.6014 22.4967 60.4716 22.6193C60.3489 22.7419 60.248 22.8861 60.1758 23.0448C60.1037 23.2107 60.0676 23.3838 60.0676 23.5569V28.7933C60.0676 28.9737 60.1037 29.1468 60.1758 29.3055C60.248 29.4713 60.3417 29.6156 60.4716 29.7382C60.5942 29.8608 60.7456 29.9618 60.9115 30.0411C61.0774 30.1133 61.265 30.1566 61.4597 30.1566C61.6617 30.1566 61.842 30.1205 62.0079 30.0411C62.1738 29.9618 62.3108 29.8608 62.4334 29.7382C62.5488 29.6084 62.6426 29.4641 62.7075 29.2982C62.7724 29.1323 62.8013 28.9592 62.8013 28.7861V28.2596C62.8013 28.1226 62.8229 28.036 62.8734 27.9855C62.9239 27.9422 62.996 27.9134 63.097 27.9134H64.3087C64.3953 27.9134 64.4602 27.935 64.5107 27.9783C64.5612 28.0216 64.5828 28.1081 64.5828 28.2452V28.8366C64.5828 29.2622 64.5035 29.6517 64.3448 30.0195C64.1861 30.3874 63.9697 30.7047 63.6884 30.9788C63.4071 31.2529 63.0681 31.4693 62.6786 31.6279C62.2892 31.7866 61.8636 31.866 61.4092 31.866C60.962 31.866 60.5365 31.7938 60.1398 31.6424C59.7431 31.4909 59.3969 31.2817 59.1011 31.0149C58.8054 30.748 58.5674 30.4306 58.4015 30.0628C58.2284 29.6949 58.1418 29.291 58.1418 28.8438V23.5136C58.1635 23.0953 58.25 22.7058 58.4159 22.338Z" fill="white"/>
<path d="M66.119 22.1792C66.0613 22.0999 66.0397 21.9989 66.0469 21.8835C66.0541 21.7681 66.1263 21.6527 66.2489 21.5445C66.4003 21.4147 66.5662 21.2849 66.761 21.155C66.9485 21.0252 67.1649 20.917 67.4029 20.816C67.6409 20.7223 67.9078 20.6429 68.1963 20.578C68.4848 20.5203 68.8094 20.4843 69.17 20.4843C69.61 20.4843 70.0356 20.5636 70.4323 20.7151C70.829 20.8665 71.1752 21.0829 71.4781 21.3642C71.7738 21.6455 72.0118 21.9773 72.1849 22.3668C72.358 22.7563 72.4446 23.1818 72.4446 23.6506V28.8005C72.4446 29.2044 72.3869 29.5506 72.2787 29.8536C72.1705 30.1565 72.0191 30.4234 71.8315 30.6542C71.644 30.885 71.4348 31.0725 71.204 31.2312C70.9732 31.3827 70.7352 31.5053 70.49 31.5991C70.2447 31.6928 70.0067 31.7577 69.7759 31.801C69.5451 31.8371 69.3359 31.8587 69.1556 31.8587C68.7661 31.8587 68.3766 31.801 67.9871 31.6784C67.5977 31.5558 67.2442 31.3682 66.9269 31.1086C66.6095 30.8489 66.3499 30.5243 66.1479 30.1276C65.9459 29.7309 65.845 29.2549 65.845 28.7067V28.2668C65.845 27.733 65.9243 27.257 66.083 26.8459C66.2417 26.4347 66.4653 26.0885 66.761 25.8145C67.0567 25.5404 67.4029 25.3312 67.814 25.1942C68.2252 25.0571 68.6868 24.9922 69.1917 24.9922H70.5116V23.6434C70.5116 23.4847 70.49 23.3261 70.4395 23.153C70.389 22.9871 70.3096 22.8284 70.1942 22.6841C70.0788 22.5399 69.9274 22.4245 69.747 22.3307C69.5595 22.2369 69.3287 22.1937 69.0618 22.1937C68.5714 22.1937 68.1603 22.273 67.8357 22.4317C67.5111 22.5904 67.2587 22.7563 67.0783 22.9222C66.999 23.0015 66.9197 23.0376 66.8331 23.0376C66.7466 23.0376 66.6744 22.9943 66.6095 22.9005L66.119 22.1792ZM70.5116 26.4131H69.6533C69.2638 26.4131 68.9536 26.4636 68.7012 26.5646C68.456 26.6656 68.2612 26.8026 68.1242 26.9757C67.9871 27.1488 67.8934 27.3435 67.8429 27.5744C67.7924 27.7979 67.7708 28.036 67.7708 28.2884V28.6851C67.7708 28.9448 67.814 29.1612 67.8934 29.3487C67.9727 29.5362 68.0809 29.6877 68.2179 29.8103C68.3478 29.9329 68.4992 30.0195 68.6651 30.0772C68.831 30.1349 68.9897 30.1637 69.1484 30.1637C69.2926 30.1637 69.4441 30.1421 69.6028 30.0916C69.7615 30.0411 69.9129 29.9618 70.0428 29.8464C70.1726 29.731 70.288 29.5867 70.3745 29.3992C70.4611 29.2189 70.5116 28.9953 70.5116 28.7284V26.4131Z" fill="white"/>
<path d="M82.8309 23.593C82.8309 23.4632 82.8165 23.3189 82.7876 23.1602C82.7588 23.0015 82.7011 22.8501 82.6217 22.713C82.5424 22.576 82.427 22.4534 82.2755 22.3596C82.1313 22.2658 81.9365 22.2153 81.6985 22.2153C81.5326 22.2153 81.3739 22.2442 81.2297 22.3091C81.0782 22.3668 80.9412 22.4606 80.8186 22.5688C80.6959 22.6842 80.595 22.8284 80.5156 22.9943C80.4363 23.1674 80.393 23.3622 80.3858 23.5713V31.325C80.3858 31.5558 80.292 31.6712 80.0973 31.6712H78.7485C78.6619 31.6712 78.5898 31.6424 78.5393 31.5775C78.4888 31.5198 78.46 31.4332 78.46 31.325V23.5136C78.4528 23.3838 78.4311 23.2468 78.3951 23.0881C78.359 22.9366 78.3013 22.7924 78.2148 22.6625C78.1354 22.5327 78.02 22.4245 77.8902 22.338C77.7531 22.2514 77.5873 22.2081 77.3853 22.2081C77.2194 22.2081 77.0607 22.2442 76.902 22.3091C76.7434 22.374 76.6063 22.475 76.4765 22.5904C76.3539 22.713 76.2457 22.8573 76.1664 23.0304C76.087 23.2035 76.0365 23.3982 76.0293 23.6074V31.2673C76.0293 31.4043 75.986 31.5053 75.9067 31.5702C75.8274 31.6351 75.7408 31.664 75.6687 31.664H74.392C74.3127 31.664 74.2478 31.6351 74.1901 31.5702C74.1324 31.5125 74.1035 31.426 74.1035 31.3178V21.0108C74.1035 20.8954 74.1324 20.8089 74.1973 20.7584C74.255 20.7079 74.3271 20.679 74.4064 20.679H75.2431C75.3513 20.679 75.4379 20.7007 75.5028 20.7512C75.5677 20.7944 75.6182 20.881 75.6398 21.0036L75.7336 21.4003C76.0077 21.1262 76.3178 20.9099 76.664 20.744C77.0102 20.5781 77.3925 20.4915 77.8036 20.4915C77.9335 20.4915 78.0849 20.5059 78.2652 20.5276C78.4456 20.5492 78.6259 20.5997 78.8206 20.679C79.0082 20.7512 79.1957 20.8666 79.376 21.0036C79.5563 21.1479 79.7222 21.3354 79.8737 21.5734C80.1622 21.2344 80.494 20.9748 80.8835 20.78C81.273 20.5853 81.6985 20.4915 82.1673 20.4915C82.2683 20.4915 82.3981 20.4987 82.564 20.5204C82.7299 20.5348 82.9102 20.5781 83.0978 20.6502C83.2925 20.7151 83.4873 20.8161 83.682 20.9531C83.8767 21.083 84.0571 21.2705 84.2157 21.5013C84.3744 21.7321 84.5042 22.0206 84.6052 22.3668C84.7062 22.713 84.7567 23.1314 84.7567 23.629V31.325C84.7567 31.5558 84.6629 31.6712 84.4682 31.6712H83.105C82.9174 31.6712 82.8237 31.5558 82.8237 31.325V23.593H82.8309Z" fill="white"/>
<path d="M86.5673 21.0325C86.5673 20.9315 86.5889 20.8521 86.6394 20.7872C86.6899 20.7223 86.7692 20.6935 86.8774 20.6935H87.7357C87.8439 20.6935 87.9233 20.7223 87.9737 20.7728C88.0242 20.8233 88.0675 20.9315 88.0964 21.0757L88.1396 21.4869C88.4137 21.1839 88.7311 20.9459 89.0917 20.7656C89.4596 20.5853 89.8635 20.4987 90.3035 20.4987C90.7146 20.4987 91.1041 20.5781 91.4503 20.7367C91.8037 20.8954 92.0994 21.119 92.3519 21.3931C92.6043 21.6672 92.7991 21.9918 92.9361 22.3668C93.0731 22.7419 93.1453 23.1314 93.1453 23.5497V28.815C93.1453 29.2261 93.0804 29.6084 92.9505 29.9762C92.8207 30.3441 92.6332 30.6686 92.3879 30.9499C92.1427 31.2312 91.8398 31.4548 91.4936 31.6207C91.1401 31.7866 90.7506 31.8732 90.3107 31.8732C89.9645 31.8732 89.6471 31.8155 89.337 31.6929C89.034 31.5775 88.7455 31.4116 88.4858 31.2024V34.8304C88.4858 35.054 88.3849 35.1622 88.1757 35.1622H86.8702C86.661 35.1622 86.5601 35.054 86.5601 34.8304V21.0325H86.5673ZM88.5003 28.851C88.5075 29.0241 88.5436 29.19 88.6157 29.3487C88.6806 29.5074 88.7816 29.6516 88.897 29.767C89.0196 29.8825 89.1639 29.9834 89.3225 30.0484C89.4884 30.1205 89.6687 30.1565 89.8563 30.1565C90.0582 30.1565 90.2385 30.1205 90.4044 30.0411C90.5703 29.969 90.7146 29.868 90.83 29.7382C90.9526 29.6156 91.0464 29.4713 91.1113 29.3054C91.1762 29.1395 91.2123 28.9664 91.2123 28.7789V23.5569C91.2123 23.3766 91.1762 23.2035 91.1113 23.0448C91.0464 22.8789 90.9454 22.7347 90.83 22.612C90.7074 22.4894 90.5631 22.3884 90.4044 22.3091C90.2385 22.237 90.0582 22.1937 89.8563 22.1937C89.6615 22.1937 89.4812 22.2298 89.3153 22.3091C89.1494 22.3812 89.0052 22.4822 88.8825 22.612C88.7599 22.7347 88.6662 22.8789 88.6013 23.0448C88.5363 23.2107 88.5003 23.3838 88.5003 23.5569V28.851Z" fill="white"/>
<path d="M96.6793 28.7717C96.6866 28.9521 96.7226 29.1252 96.7803 29.2838C96.838 29.4497 96.9318 29.594 97.04 29.7238C97.1554 29.8536 97.2924 29.9546 97.4655 30.0267C97.6314 30.0989 97.8262 30.1422 98.0425 30.1422C98.2156 30.1422 98.3815 30.1061 98.5474 30.034C98.7133 29.9618 98.8576 29.8681 98.9802 29.7455C99.1028 29.6228 99.2038 29.4786 99.2831 29.3127C99.3625 29.1468 99.4057 28.9665 99.413 28.7789V21.0686C99.413 20.9387 99.4562 20.845 99.5356 20.78C99.6149 20.7151 99.7015 20.6863 99.7736 20.6863H101.05C101.122 20.6863 101.187 20.7151 101.252 20.78C101.31 20.8377 101.346 20.9243 101.346 21.0325V31.3539C101.346 31.4621 101.317 31.5414 101.252 31.5919C101.187 31.6424 101.115 31.6712 101.036 31.6712H100.199C100.098 31.6712 100.019 31.6496 99.9611 31.6063C99.9034 31.563 99.8529 31.4837 99.8241 31.3683L99.7375 30.9283C99.4634 31.2096 99.1533 31.4332 98.8071 31.6063C98.4609 31.7794 98.093 31.866 97.6963 31.866C97.2636 31.866 96.8597 31.7939 96.499 31.6424C96.1384 31.4909 95.8282 31.2818 95.5686 31.0077C95.3089 30.7336 95.107 30.409 94.9627 30.034C94.8185 29.6517 94.7463 29.2333 94.7463 28.7789V21.0253C94.7463 20.9171 94.7752 20.8377 94.8401 20.78C94.8978 20.7223 94.9699 20.6935 95.0493 20.6935H96.3908C96.4702 20.6935 96.5351 20.7223 96.5928 20.78C96.6505 20.8377 96.6793 20.9171 96.6793 21.0253V28.7717Z" fill="white"/>
<path d="M102.724 28.5914C102.724 28.3822 102.861 28.2812 103.142 28.2812H104.282C104.469 28.2812 104.563 28.3894 104.563 28.6058V28.8943C104.563 29.0819 104.599 29.255 104.671 29.4136C104.743 29.5723 104.844 29.7094 104.967 29.8248C105.089 29.9402 105.241 30.0267 105.407 30.0916C105.573 30.1565 105.76 30.1854 105.962 30.1854C106.15 30.1854 106.323 30.1493 106.496 30.0844C106.662 30.0195 106.813 29.9185 106.936 29.7959C107.058 29.6733 107.159 29.529 107.232 29.3632C107.304 29.1973 107.34 29.0169 107.34 28.8294C107.34 28.613 107.275 28.4183 107.145 28.2308C107.015 28.0432 106.835 27.8629 106.611 27.6826C106.388 27.5023 106.128 27.322 105.825 27.1272C105.529 26.9397 105.205 26.7233 104.866 26.4925C104.585 26.3194 104.325 26.1319 104.08 25.9371C103.834 25.7352 103.618 25.5188 103.438 25.2808C103.257 25.0427 103.106 24.7759 102.998 24.4729C102.89 24.1772 102.839 23.8454 102.839 23.4776C102.839 23.0664 102.918 22.6698 103.07 22.3091C103.221 21.9413 103.438 21.6311 103.719 21.357C104 21.0902 104.332 20.881 104.714 20.7223C105.097 20.5709 105.515 20.4915 105.962 20.4915C106.453 20.4915 106.9 20.5636 107.289 20.7151C107.679 20.8666 108.011 21.0757 108.285 21.3426C108.559 21.6095 108.768 21.9341 108.912 22.3019C109.056 22.677 109.129 23.0809 109.129 23.5136V23.7949C109.129 23.8959 109.1 23.9608 109.042 23.9969C108.984 24.0257 108.898 24.0474 108.775 24.0474H107.672C107.47 24.0474 107.369 23.9464 107.369 23.7444V23.4848C107.369 23.29 107.333 23.1169 107.268 22.9511C107.203 22.7924 107.109 22.6481 106.986 22.5327C106.871 22.4173 106.727 22.3235 106.568 22.2514C106.409 22.1865 106.236 22.1504 106.049 22.1504C105.854 22.1504 105.681 22.1865 105.522 22.2586C105.363 22.3308 105.234 22.4317 105.118 22.5544C105.003 22.677 104.916 22.8212 104.859 22.9871C104.801 23.153 104.765 23.3261 104.765 23.5136C104.765 23.7228 104.794 23.8959 104.859 24.0402C104.924 24.1844 105.024 24.3215 105.176 24.4513C105.32 24.5811 105.508 24.7182 105.746 24.8624C105.977 25.0067 106.265 25.1798 106.604 25.3889C106.95 25.5909 107.289 25.8073 107.607 26.0453C107.931 26.2833 108.213 26.5358 108.451 26.8171C108.689 27.0984 108.891 27.4013 109.035 27.7331C109.179 28.0649 109.251 28.4255 109.251 28.8222C109.251 29.255 109.172 29.6589 109.02 30.0267C108.869 30.3946 108.645 30.7119 108.364 30.986C108.075 31.2601 107.736 31.4693 107.34 31.6207C106.943 31.7722 106.503 31.8515 106.027 31.8515C105.414 31.8515 104.895 31.7722 104.476 31.6063C104.058 31.4404 103.719 31.2168 103.459 30.9427C103.2 30.6614 103.019 30.3441 102.904 29.9762C102.789 29.6084 102.731 29.2261 102.731 28.8294V28.5914H102.724Z" fill="white"/>
<path d="M110.679 17.1809C110.679 17.0799 110.708 17.0005 110.759 16.9356C110.809 16.8707 110.888 16.8419 110.989 16.8419H112.295C112.396 16.8419 112.475 16.8707 112.526 16.9356C112.576 17.0005 112.605 17.0799 112.605 17.1809V28.9304C112.605 29.2477 112.677 29.493 112.829 29.6661C112.98 29.8392 113.24 29.9257 113.6 29.9257H113.903C114.04 29.9257 114.12 29.969 114.149 30.0483C114.177 30.1277 114.192 30.1998 114.192 30.2575V31.3611C114.192 31.3971 114.185 31.4332 114.185 31.4692C114.177 31.5053 114.156 31.5342 114.127 31.563C114.098 31.5919 114.048 31.6135 113.983 31.6351C113.918 31.6568 113.831 31.664 113.723 31.664H113.124C112.764 31.664 112.439 31.6207 112.136 31.527C111.833 31.4332 111.581 31.2817 111.364 31.0798C111.148 30.8706 110.982 30.6037 110.86 30.2647C110.737 29.9257 110.679 29.5146 110.679 29.0169V17.1809Z" fill="white"/>
<path d="M115.584 22.1792C115.526 22.0999 115.505 21.9989 115.512 21.8835C115.519 21.7681 115.591 21.6527 115.714 21.5445C115.865 21.4147 116.031 21.2849 116.226 21.155C116.413 21.0252 116.63 20.917 116.868 20.816C117.106 20.7223 117.373 20.6429 117.661 20.578C117.95 20.5203 118.274 20.4843 118.635 20.4843C119.075 20.4843 119.5 20.5636 119.897 20.7151C120.294 20.8665 120.64 21.0829 120.943 21.3642C121.239 21.6455 121.477 21.9773 121.65 22.3668C121.823 22.7563 121.909 23.1818 121.909 23.6506V28.8005C121.909 29.2044 121.852 29.5506 121.744 29.8536C121.635 30.1565 121.484 30.4234 121.296 30.6542C121.109 30.885 120.9 31.0725 120.669 31.2312C120.438 31.3827 120.2 31.5053 119.955 31.5991C119.71 31.6928 119.472 31.7577 119.241 31.801C119.01 31.8371 118.801 31.8587 118.62 31.8587C118.231 31.8587 117.841 31.801 117.452 31.6784C117.063 31.5558 116.709 31.3682 116.392 31.1086C116.074 30.8489 115.815 30.5243 115.613 30.1276C115.411 29.7309 115.31 29.2549 115.31 28.7067V28.2668C115.31 27.733 115.389 27.257 115.548 26.8459C115.706 26.4347 115.93 26.0885 116.226 25.8145C116.522 25.5404 116.868 25.3312 117.279 25.1942C117.69 25.0571 118.152 24.9922 118.657 24.9922H119.976V23.6434C119.976 23.4847 119.955 23.3261 119.904 23.153C119.854 22.9871 119.774 22.8284 119.659 22.6841C119.544 22.5399 119.392 22.4245 119.212 22.3307C119.024 22.2369 118.794 22.1937 118.527 22.1937C118.036 22.1937 117.625 22.273 117.301 22.4317C116.976 22.5904 116.723 22.7563 116.543 22.9222C116.464 23.0015 116.385 23.0376 116.298 23.0376C116.211 23.0376 116.139 22.9943 116.074 22.9005L115.584 22.1792ZM119.969 26.4131H119.111C118.721 26.4131 118.411 26.4636 118.159 26.5646C117.914 26.6656 117.719 26.8026 117.582 26.9757C117.445 27.1488 117.351 27.3435 117.301 27.5744C117.25 27.7979 117.228 28.036 117.228 28.2884V28.6851C117.228 28.9448 117.272 29.1612 117.351 29.3487C117.43 29.5362 117.539 29.6877 117.676 29.8103C117.805 29.9329 117.957 30.0195 118.123 30.0772C118.289 30.1349 118.447 30.1637 118.606 30.1637C118.75 30.1637 118.902 30.1421 119.06 30.0916C119.219 30.0411 119.371 29.9618 119.5 29.8464C119.63 29.731 119.746 29.5867 119.832 29.3992C119.919 29.2189 119.969 28.9953 119.969 28.7284V26.4131Z" fill="white"/>
<path d="M125.509 31.2817C125.509 31.4115 125.466 31.5053 125.386 31.5702C125.307 31.6351 125.22 31.6639 125.148 31.6639H123.872C123.8 31.6639 123.735 31.6351 123.67 31.5702C123.612 31.5125 123.576 31.4259 123.576 31.3177V21.0108C123.576 20.9026 123.605 20.8232 123.67 20.7727C123.735 20.7222 123.807 20.6934 123.886 20.6934H124.723C124.824 20.6934 124.903 20.715 124.968 20.7583C125.033 20.8016 125.076 20.8809 125.098 20.9963L125.184 21.4363C125.458 21.155 125.761 20.9314 126.108 20.7583C126.454 20.5852 126.822 20.4987 127.226 20.4987C127.658 20.4987 128.062 20.5708 128.423 20.7222C128.784 20.8737 129.094 21.0829 129.353 21.357C129.613 21.6311 129.815 21.9556 129.959 22.3307C130.103 22.713 130.176 23.1313 130.176 23.5857V31.3394C130.176 31.4476 130.147 31.5269 130.089 31.5846C130.031 31.6423 129.966 31.6712 129.887 31.6712H128.538C128.459 31.6712 128.394 31.6423 128.336 31.5846C128.279 31.5269 128.25 31.4476 128.25 31.3394V23.5929C128.243 23.4126 128.207 23.2395 128.149 23.0736C128.091 22.9077 128.005 22.7562 127.889 22.6264C127.781 22.4966 127.637 22.3956 127.471 22.3235C127.305 22.2513 127.11 22.2081 126.887 22.2081C126.706 22.2081 126.533 22.2441 126.374 22.3235C126.209 22.3956 126.064 22.5038 125.934 22.6264C125.805 22.7562 125.704 22.9077 125.632 23.0808C125.559 23.2539 125.516 23.4414 125.516 23.6434V31.2817H125.509Z" fill="white"/>
<path d="M138.333 28.8366C138.333 29.2766 138.246 29.6877 138.073 30.0555C137.9 30.4234 137.669 30.7408 137.373 31.0076C137.078 31.2745 136.732 31.4837 136.328 31.6351C135.924 31.7866 135.498 31.8587 135.051 31.8587C134.589 31.8587 134.157 31.7866 133.753 31.6351C133.349 31.4837 133.003 31.2745 132.707 31.0076C132.411 30.7408 132.173 30.4234 132.007 30.0555C131.834 29.6877 131.748 29.2838 131.748 28.8366V23.5136C131.748 23.0809 131.827 22.6769 131.986 22.3019C132.144 21.9268 132.361 21.6095 132.628 21.3426C132.902 21.0757 133.226 20.8666 133.601 20.7151C133.976 20.5636 134.38 20.4915 134.82 20.4915C135.087 20.4915 135.354 20.5348 135.628 20.6141C135.902 20.6935 136.162 20.8089 136.414 20.9531V17.1809C136.414 17.0799 136.436 17.0005 136.486 16.9356C136.537 16.8707 136.616 16.8419 136.724 16.8419H138.023C138.131 16.8419 138.21 16.8707 138.261 16.9356C138.311 17.0005 138.34 17.0799 138.34 17.1809V28.8366H138.333ZM136.407 23.5641C136.407 23.3838 136.371 23.2107 136.306 23.052C136.241 22.8861 136.147 22.7419 136.025 22.6192C135.902 22.4966 135.758 22.3956 135.592 22.3163C135.426 22.2442 135.246 22.2009 135.051 22.2009C134.849 22.2009 134.669 22.237 134.503 22.3163C134.337 22.3884 134.193 22.4894 134.07 22.6192C133.947 22.7419 133.854 22.8933 133.789 23.0592C133.724 23.2251 133.688 23.3982 133.688 23.5785V28.8005C133.688 28.9809 133.724 29.154 133.789 29.3127C133.854 29.4785 133.947 29.6228 134.07 29.7454C134.193 29.868 134.337 29.969 134.503 30.0483C134.669 30.1205 134.856 30.1637 135.051 30.1637C135.246 30.1637 135.426 30.1277 135.592 30.0483C135.758 29.9762 135.902 29.8752 136.025 29.7454C136.147 29.6228 136.241 29.4785 136.306 29.3127C136.371 29.1468 136.407 28.9736 136.407 28.8005V23.5641Z" fill="white"/>
<path d="M139.544 28.5914C139.544 28.3822 139.681 28.2812 139.963 28.2812H141.102C141.29 28.2812 141.384 28.3894 141.384 28.6058V28.8943C141.384 29.0819 141.42 29.255 141.492 29.4136C141.564 29.5723 141.665 29.7094 141.788 29.8248C141.91 29.9402 142.062 30.0267 142.228 30.0916C142.393 30.1565 142.581 30.1854 142.783 30.1854C142.97 30.1854 143.144 30.1493 143.317 30.0844C143.483 30.0195 143.634 29.9185 143.757 29.7959C143.879 29.6733 143.98 29.529 144.052 29.3632C144.125 29.1973 144.161 29.0169 144.161 28.8294C144.161 28.613 144.096 28.4183 143.966 28.2308C143.836 28.0432 143.656 27.8629 143.432 27.6826C143.208 27.5023 142.949 27.322 142.646 27.1272C142.35 26.9397 142.026 26.7233 141.687 26.4925C141.405 26.3194 141.146 26.1319 140.9 25.9371C140.655 25.7352 140.439 25.5188 140.258 25.2808C140.078 25.0427 139.927 24.7759 139.819 24.4729C139.71 24.1772 139.66 23.8454 139.66 23.4776C139.66 23.0664 139.739 22.6698 139.891 22.3091C140.042 21.9413 140.258 21.6311 140.54 21.357C140.821 21.0902 141.153 20.881 141.535 20.7223C141.917 20.5709 142.336 20.4915 142.783 20.4915C143.273 20.4915 143.721 20.5636 144.11 20.7151C144.5 20.8666 144.831 21.0757 145.105 21.3426C145.38 21.6095 145.589 21.9341 145.733 22.3019C145.877 22.677 145.949 23.0809 145.949 23.5136V23.7949C145.949 23.8959 145.92 23.9608 145.863 23.9969C145.805 24.0257 145.719 24.0474 145.596 24.0474H144.492C144.29 24.0474 144.189 23.9464 144.189 23.7444V23.4848C144.189 23.29 144.153 23.1169 144.088 22.9511C144.024 22.7924 143.93 22.6481 143.807 22.5327C143.692 22.4173 143.547 22.3235 143.389 22.2514C143.23 22.1865 143.057 22.1504 142.869 22.1504C142.675 22.1504 142.502 22.1865 142.343 22.2586C142.184 22.3308 142.054 22.4317 141.939 22.5544C141.824 22.677 141.737 22.8212 141.679 22.9871C141.622 23.153 141.586 23.3261 141.586 23.5136C141.586 23.7228 141.614 23.8959 141.679 24.0402C141.744 24.1844 141.845 24.3215 141.997 24.4513C142.141 24.5811 142.329 24.7182 142.567 24.8624C142.797 25.0067 143.086 25.1798 143.425 25.3889C143.771 25.5909 144.11 25.8073 144.427 26.0453C144.752 26.2833 145.033 26.5358 145.271 26.8171C145.509 27.0984 145.711 27.4013 145.856 27.7331C146 28.0649 146.072 28.4255 146.072 28.8222C146.072 29.255 145.993 29.6589 145.841 30.0267C145.69 30.3946 145.466 30.7119 145.185 30.986C144.896 31.2601 144.557 31.4693 144.161 31.6207C143.764 31.7722 143.324 31.8515 142.848 31.8515C142.235 31.8515 141.715 31.7722 141.297 31.6063C140.879 31.4404 140.54 31.2168 140.28 30.9427C140.02 30.6614 139.84 30.3441 139.725 29.9762C139.609 29.6084 139.552 29.2261 139.552 28.8294V28.5914H139.544Z" fill="white"/>
</svg>
